<svg width="64" height="64" xmlns="http://www.w3.org/2000/svg" xml:space="preserve" version="1.1">
 <g>
  <title>Layer 1</title>
  <g id="svg_1">
   <g id="svg_2">
    <path id="svg_3" fill="#013755" d="m-217.4,328.9c0.8,-2.8 2.6,-3.8 5.3,-3.1c2.8,0.8 4,2.5 3.3,5.3l-33.9,126.4c-0.7,2.8 -2.6,3.8 -5.4,3c-2.8,-0.8 -3.9,-2.5 -3.2,-5.3l33.9,-126.3z" class="st0"/>
   </g>
   <g id="svg_4">
    <path id="svg_5" fill="#013755" d="m-145.5,328.9c0.8,-2.8 2.6,-3.8 5.3,-3c2.8,0.8 4,2.5 3.3,5.3l-33.9,126.4c-0.8,2.8 -2.6,3.8 -5.4,3c-2.8,-0.8 -3.9,-2.5 -3.2,-5.3l33.9,-126.4z" class="st0"/>
   </g>
   <g id="svg_6">
    <path id="svg_7" fill="#013755" d="m-359.5,310.7c0,-2.9 1.4,-4.3 4.2,-4.3c2.9,0 4.3,1.4 4.3,4.3l0,73.7l37.4,0c2.9,0 4.3,1.4 4.3,4.2c0,2.9 -1.4,4.3 -4.3,4.3l-40.2,0c-3.8,0 -5.7,-2.2 -5.7,-6.6l0,-75.6z" class="st0"/>
    <path id="svg_8" fill="#013755" d="m-277.8,326.6c15.5,0 23.7,9.3 23.7,21.1l0,41.9c0,2.2 -1.5,4.3 -4.3,4.3s-4.2,-2 -4.3,-4.2c-0.1,-2.2 -0.1,-2.9 -0.1,-4c-5,5.4 -12.5,8.2 -19.9,8.2c-11.4,0 -22.4,-6.4 -22.4,-19.5c0,-13.6 12.5,-20.6 24.7,-20.6c6.6,0 13.8,2 17.6,5.8l0,-11.1c0,-8 -6.5,-13.4 -17.5,-13.4c-7.6,0 -12.5,2.8 -16.1,2.8c-2,0 -4,-0.9 -4,-3.6c0,-1.5 1.3,-3.4 3.3,-4.2c5,-2.1 11.2,-3.5 19.3,-3.5zm-3.5,59.1c8.9,0 18.3,-4.7 18.3,-12.7c0,-7.1 -8.9,-11.2 -17.5,-11.2c-8.2,0 -16,3.7 -16,11.9c0,8.4 7.2,12 15.2,12z" class="st0"/>
    <path id="svg_9" fill="#013755" d="m-113.1,301.4c3.3,0 5.8,2.6 5.8,5.8c0,3.3 -2.6,5.8 -5.8,5.8s-5.8,-2.6 -5.8,-5.8c0,-3.3 2.6,-5.8 5.8,-5.8zm-4.1,29.6c0,-2.9 1.5,-4.3 4.3,-4.3c2.9,0 4.5,1.4 4.5,4.3l0,57.6c0,2.9 -1.5,4.3 -4.4,4.3c-2.9,0 -4.4,-1.4 -4.4,-4.3l0,-57.6z" class="st0"/>
    <path id="svg_10" fill="#013755" d="m-86.3,331.8c0,-3 1.4,-4.5 4.2,-4.5c2.9,0 4.3,1.5 4.3,4.5l0,4.4c3.8,-7 10.6,-10.1 17.5,-10.1c11.2,0 22.7,8.4 22.7,22.3l0,40.3c0,2.8 -1.4,4.2 -4.3,4.2c-2.8,0 -4.2,-1.4 -4.2,-4.2l0,-36.6c0,-11.8 -7.8,-17.5 -15.6,-17.5c-8,0 -16.1,5.9 -16.1,17.5l0,36.6c0,2.8 -1.4,4.2 -4.3,4.2c-2.8,0 -4.2,-1.4 -4.2,-4.2c0,0 0,-56.9 0,-56.9z" class="st0"/>
    <path id="svg_11" fill="#013755" d="m4.1,326.6c15.5,0 23.7,9.3 23.7,21.1l0,41.9c0,2.2 -1.5,4.3 -4.3,4.3c-2.8,0 -4.2,-2 -4.3,-4.2c-0.1,-2.2 -0.1,-2.9 -0.1,-4c-5,5.4 -12.5,8.2 -19.9,8.2c-11.4,0 -22.4,-6.4 -22.4,-19.5c0,-13.6 12.5,-20.6 24.7,-20.6c6.6,0 13.8,2 17.6,5.8l0,-11.1c0,-8 -6.5,-13.4 -17.5,-13.4c-7.6,0 -12.5,2.8 -16.1,2.8c-2,0 -4,-0.9 -4,-3.6c0,-1.5 1.3,-3.4 3.3,-4.2c5,-2.1 11.2,-3.5 19.3,-3.5zm-3.5,59.1c8.9,0 18.3,-4.7 18.3,-12.7c0,-7.1 -8.9,-11.2 -17.5,-11.2c-8.2,0 -16,3.7 -16,11.9c0,8.4 7.2,12 15.2,12z" class="st0"/>
    <path id="svg_12" fill="#013755" d="m66.5,385.6c6.3,0 14.3,-2.6 14.3,-10.1c0,-5.7 -7.2,-9 -13.4,-11.2c-10.6,-3.8 -23.4,-9 -23.4,-18.9c0,-13.2 11.1,-19 23.4,-19c6.1,0 12.5,1.2 18.1,4.2c1.5,0.8 2.2,2.4 2.2,4.1c0,2.7 -1.8,4.1 -4,4.1c-0.8,0 -1.7,-0.2 -2.6,-0.7c-2.8,-1.6 -8.5,-3 -14,-3c-6.9,0 -14,2.4 -14,9.3c0,5.4 9.1,8.2 17.8,11.8c9.6,4 19.4,8 19.4,18.5c0,14.3 -12.6,19.6 -24.1,19.6c-8.4,0 -15.2,-2.8 -21.6,-6.9c-1,-0.7 -1.5,-2.1 -1.5,-3.5c0,-3.3 1.6,-4.8 3.8,-4.8c1,0 2.2,0.5 3.4,1.3c4.2,2.6 9.7,5.2 16.2,5.2z" class="st0"/>
   </g>
   <path id="svg_13" fill="#013755" d="m-186.4,344.2c0.8,-2.8 2.6,-3.8 5.3,-3c2.8,0.8 4,2.5 3.3,5.3l-14.9,55.7c-0.8,2.8 -2.6,3.8 -5.4,3c-2.8,-0.8 -3.9,-2.5 -3.2,-5.3l14.9,-55.7z" class="st0"/>
  </g>
  <g id="svg_14">
   <g stroke="null" id="svg_16">
    <path stroke="null" fill="#000000" d="m18.63771,1.8677c0.37503,-1.31264 1.21888,-1.78144 2.48463,-1.45328c1.31264,0.37503 1.8752,1.17199 1.54704,2.48463l-15.89225,59.25606c-0.32816,1.31264 -1.21888,1.78144 -2.5315,1.40639c-1.31264,-0.37503 -1.82831,-1.17199 -1.50015,-2.48463l15.89225,-59.20919l-0.00002,0.00002z" class="st0" id="svg_17"/>
   </g>
   <g stroke="null" id="svg_18">
    <path stroke="null" fill="#000000" d="m56.85323,1.86378c0.40906,-1.30751 1.32947,-1.77447 2.71007,-1.40089c1.43174,0.37357 2.04534,1.16741 1.68741,2.47492l-17.33419,59.02443c-0.40906,1.30751 -1.32947,1.77447 -2.76119,1.40089c-1.43174,-0.37357 -1.9942,-1.16741 -1.63626,-2.47492l17.33419,-59.02443l-0.00002,0z" class="st0" id="svg_19"/>
   </g>
   <path stroke="null" fill="#000000" d="m35.93969,9.83211c0.40906,-1.43174 1.32947,-1.94307 2.71007,-1.53399c1.43174,0.40906 2.04534,1.27833 1.68741,2.71007l-7.61887,28.48127c-0.40906,1.43174 -1.32947,1.94307 -2.76119,1.53399c-1.43174,-0.40906 -1.9942,-1.27833 -1.63626,-2.71007l7.61887,-28.48127l-0.00002,0z" class="st0" id="svg_27"/>
  </g>
 </g>

</svg>