<svg width="64" height="64" xmlns="http://www.w3.org/2000/svg" xml:space="preserve" version="1.1">
  <g id="Layer_1">
    <title>Layer 1</title>
    <metadata id="svg_36">image/svg+xml</metadata>
    <g id="svg_37">
      <path fill="url(#svg_7)" id="svg_6" d="m31.63099,0.67225c-2.55537,0.01187 -4.99569,0.22981 -7.14293,0.60976c-6.32548,1.1175 -7.47394,3.45654 -7.47394,7.77011l0,5.69692l14.94789,0l0,1.89897l-14.94789,0l-5.60981,0c-4.34427,0 -8.14824,2.61116 -9.33807,7.57847c-1.37246,5.69369 -1.43334,9.24665 0,15.19179c1.06254,4.42533 3.60006,7.57847 7.94433,7.57847l5.13942,0l0,-6.82934c0,-4.93379 4.26884,-9.28581 9.33807,-9.28581l14.93046,0c4.15612,0 7.47395,-3.42201 7.47394,-7.5959l0,-14.23359c0,-4.05096 -3.41744,-7.09403 -7.47394,-7.77011c-2.56782,-0.42745 -5.23216,-0.62164 -7.78754,-0.60976zm-8.08371,4.58193c1.54402,0 2.80491,1.28149 2.80491,2.85717c0,1.5701 -1.26089,2.83975 -2.80491,2.83975c-1.54955,0 -2.80491,-1.26965 -2.80491,-2.83975c0,-1.57568 1.25536,-2.85717 2.80491,-2.85717z"/>
      <path fill="url(#svg_5)" id="svg_4" d="m48.7566,16.64802l0,6.6377c0,5.14611 -4.36291,9.47745 -9.33807,9.47745l-14.93046,0c-4.0897,0 -7.47394,3.50023 -7.47394,7.5959l0,14.23359c0,4.05096 3.52259,6.43369 7.47394,7.5959c4.73167,1.39129 9.26908,1.64274 14.93046,0c3.76319,-1.08957 7.47395,-3.28232 7.47394,-7.5959l0,-5.69692l-14.93046,0l0,-1.89897l14.93046,0l7.47395,0c4.34427,0 5.96313,-3.03022 7.47394,-7.57847c1.56062,-4.68236 1.49421,-9.1852 0,-15.19179c-1.07362,-4.32475 -3.12414,-7.57847 -7.47394,-7.57847l-5.60982,0zm-8.3973,36.04566c1.54955,0 2.80491,1.26965 2.80491,2.83975c0,1.57568 -1.25535,2.85717 -2.80491,2.85717c-1.54401,0 -2.80491,-1.28149 -2.80491,-2.85717c0.00001,-1.5701 1.26089,-2.83975 2.80491,-2.83975z"/>
    </g>
  </g>
  <defs>
    <linearGradient id="svg_11">
      <stop stop-color="#ffd43b" id="svg_24" offset="0"/>
      <stop stop-color="#ffe873" id="svg_23" offset="1"/>
    </linearGradient>
    <linearGradient id="svg_10">
      <stop stop-color="#5a9fd4" id="svg_22" offset="0"/>
      <stop stop-color="#306998" id="svg_21" offset="1"/>
    </linearGradient>
    <linearGradient href="#svg_11" y2="137.27299" x2="112.03144" y1="192.35176" x1="150.96111" gradientTransform="matrix(0.3136148750782013,0,0,0.3166426420211792,-7.343559503555298,-5.852296829223633)" gradientUnits="userSpaceOnUse" id="svg_5" />
    <linearGradient href="#svg_10" y2="114.39767" x2="135.66525" y1="20.60378" x1="26.64894" gradientTransform="matrix(0.3136148750782013,0,0,0.3166426420211792,-7.752615213394165,-5.852296829223633)" gradientUnits="userSpaceOnUse" id="svg_7" />
  </defs>
</svg>